<svg width="24" height="24" viewBox="0 0 24 24" fill="none" xmlns="http://www.w3.org/2000/svg">
<g clip-path="url(#clip0_285_272)">
<mask id="mask0_285_272" style="mask-type:luminance" maskUnits="userSpaceOnUse" x="0" y="0" width="24" height="24">
<path d="M24 0H0V24H24V0Z" fill="white"/>
</mask>
<g mask="url(#mask0_285_272)">
<path d="M19.39 12.5399L18.38 12.7699C17.66 12.9399 17.09 13.4999 16.93 14.2199L16.7 15.2299C16.68 15.3399 16.52 15.3399 16.5 15.2299L16.27 14.2199C16.1 13.4999 15.54 12.9299 14.82 12.7699L13.81 12.5399C13.7 12.5199 13.7 12.3599 13.81 12.3399L14.82 12.1099C15.54 11.9399 16.11 11.3799 16.27 10.6599L16.5 9.64988C16.52 9.53988 16.68 9.53988 16.7 9.64988L16.93 10.6599C17.1 11.3799 17.66 11.9499 18.38 12.1099L19.39 12.3399C19.5 12.3599 19.5 12.5199 19.39 12.5399Z" stroke="white" stroke-width="1.5" stroke-miterlimit="10"/>
<path d="M13.4704 15.14C13.0004 15.27 12.5104 15.34 12.0004 15.34C8.93043 15.34 6.44043 12.85 6.44043 9.78V3.11C6.44043 2.5 6.94043 2 7.55043 2H16.4504C17.0604 2 17.5604 2.5 17.5604 3.11V7.08" stroke="white" stroke-width="1.5" stroke-linecap="round" stroke-linejoin="round"/>
<path d="M6.91025 12H6.45025C4.00025 12 2.01025 10.01 2.01025 7.55998V5.33998C2.01025 4.72998 2.51025 4.22998 3.12025 4.22998H6.45025" stroke="white" stroke-width="1.5" stroke-linecap="round" stroke-linejoin="round"/>
<path d="M21.0103 10.34C21.6203 9.57998 21.9903 8.60998 21.9903 7.55998V5.33998C21.9903 4.72998 21.4903 4.22998 20.8803 4.22998H17.5503" stroke="white" stroke-width="1.5" stroke-linecap="round" stroke-linejoin="round"/>
<path d="M16.0703 18.6699H7.93033C7.45033 18.6699 7.03033 18.9799 6.88033 19.4299L6.51033 20.5399C6.40033 20.8799 6.45033 21.2499 6.66033 21.5399C6.87033 21.8299 7.20033 21.9999 7.56033 21.9999H16.4503C16.8103 21.9999 17.1403 21.8299 17.3503 21.5399C17.5603 21.2499 17.6203 20.8799 17.5003 20.5399L17.1303 19.4299C16.9803 18.9799 16.5503 18.6699 16.0803 18.6699H16.0703Z" stroke="white" stroke-width="1.5" stroke-linecap="round" stroke-linejoin="round"/>
<path d="M12 15.3301V18.6601" stroke="white" stroke-width="1.5" stroke-linecap="round" stroke-linejoin="round"/>
</g>
</g>
<defs>
<clipPath id="clip0_285_272">
<rect width="24" height="24" fill="white"/>
</clipPath>
</defs>
</svg>
