<svg width="24" height="24" viewBox="0 0 24 24" fill="none" xmlns="http://www.w3.org/2000/svg">
<path d="M4 18.0001V11.0001M8 18.0001V11.0001M12 18.0001V11.0001M16 18.0001V11.0001M20 18.0001V11.0001M1 22.0001H23M12.37 2.15009L21.37 5.75009C21.72 5.89009 22 6.31009 22 6.68009V10.0001C22 10.5501 21.55 11.0001 21 11.0001H3C2.45 11.0001 2 10.5501 2 10.0001V6.68009C2 6.31009 2.28 5.89009 2.63 5.75009L11.63 2.15009C11.83 2.07009 12.17 2.07009 12.37 2.15009ZM22 22.0001H2V19.0001C2 18.4501 2.45 18.0001 3 18.0001H21C21.55 18.0001 22 18.4501 22 19.0001V22.0001Z" stroke="white" stroke-miterlimit="10" stroke-linecap="round" stroke-linejoin="round"/>
<path d="M12 8.5C12.197 8.5 12.392 8.4612 12.574 8.38582C12.756 8.31044 12.9214 8.19995 13.0607 8.06066C13.1999 7.92137 13.3104 7.75601 13.3858 7.57403C13.4612 7.39204 13.5 7.19698 13.5 7C13.5 6.80302 13.4612 6.60796 13.3858 6.42597C13.3104 6.24399 13.1999 6.07863 13.0607 5.93934C12.9214 5.80005 12.756 5.68956 12.574 5.61418C12.392 5.5388 12.197 5.5 12 5.5C11.6022 5.5 11.2206 5.65804 10.9393 5.93934C10.658 6.22064 10.5 6.60218 10.5 7C10.5 7.39782 10.658 7.77936 10.9393 8.06066C11.2206 8.34196 11.6022 8.5 12 8.5Z" stroke="#CF70D2" stroke-width="1.5" stroke-miterlimit="10" stroke-linecap="round" stroke-linejoin="round"/>
</svg>
