<svg width="25" height="24" viewBox="0 0 25 24" fill="none" xmlns="http://www.w3.org/2000/svg">
<g clip-path="url(#clip0_156_2458)">
<mask id="mask0_156_2458" style="mask-type:luminance" maskUnits="userSpaceOnUse" x="0" y="0" width="25" height="24">
<path d="M24.5 0H0.5V24H24.5V0Z" fill="white"/>
</mask>
<g mask="url(#mask0_156_2458)">
<path d="M12.4998 13.3008C12.3698 13.3008 12.2398 13.2709 12.1198 13.2009L3.28985 8.09088C2.92985 7.88088 2.80983 7.42085 3.01983 7.06085C3.22983 6.70085 3.67983 6.58083 4.04983 6.79083L12.4998 11.6808L20.8998 6.82086C21.2598 6.61086 21.7198 6.74088 21.9298 7.09088C22.1398 7.45088 22.0098 7.91085 21.6598 8.12085L12.8899 13.2009C12.7599 13.2609 12.6298 13.3008 12.4998 13.3008Z" fill="white"/>
<path d="M12.5 22.3591C12.09 22.3591 11.75 22.0191 11.75 21.6091V12.5391C11.75 12.1291 12.09 11.7891 12.5 11.7891C12.91 11.7891 13.25 12.1291 13.25 12.5391V21.6091C13.25 22.0191 12.91 22.3591 12.5 22.3591Z" fill="white"/>
<path d="M12.5001 22.75C11.6201 22.75 10.7501 22.56 10.0601 22.18L4.72012 19.21C3.27012 18.41 2.14014 16.48 2.14014 14.82V9.16998C2.14014 7.50998 3.27012 5.59002 4.72012 4.78002L10.0601 1.82C11.4301 1.06 13.5701 1.06 14.9401 1.82L20.2801 4.78997C21.7301 5.58997 22.8601 7.51999 22.8601 9.17999V14.83C22.8601 16.49 21.7301 18.41 20.2801 19.22L14.9401 22.18C14.2501 22.56 13.3801 22.75 12.5001 22.75ZM12.5001 2.74999C11.8701 2.74999 11.2501 2.88 10.7901 3.13L5.45013 6.09997C4.49013 6.63997 3.64014 8.06999 3.64014 9.17999V14.83C3.64014 15.93 4.49013 17.37 5.45013 17.91L10.7901 20.88C11.7001 21.39 13.3001 21.39 14.2101 20.88L19.5501 17.91C20.5101 17.37 21.3601 15.94 21.3601 14.83V9.17999C21.3601 8.07999 20.5101 6.63997 19.5501 6.09997L14.2101 3.13C13.7501 2.88 13.1301 2.74999 12.5001 2.74999Z" fill="white"/>
<path d="M17.5002 13.9905C17.0902 13.9905 16.7502 13.6505 16.7502 13.2405V10.0206L7.63018 4.76055C7.27018 4.55055 7.15016 4.09054 7.36016 3.74054C7.57016 3.38054 8.02018 3.26052 8.38018 3.47052L17.8702 8.95056C18.1002 9.08056 18.2502 9.33052 18.2502 9.60052V13.2606C18.2502 13.6506 17.9102 13.9905 17.5002 13.9905Z" fill="white"/>
</g>
</g>
<defs>
<clipPath id="clip0_156_2458">
<rect width="24" height="24" fill="white" transform="translate(0.5)"/>
</clipPath>
</defs>
</svg>
