<svg width="25" height="24" viewBox="0 0 25 24" fill="none" xmlns="http://www.w3.org/2000/svg">
<g clip-path="url(#clip0_156_2478)">
<mask id="mask0_156_2478" style="mask-type:luminance" maskUnits="userSpaceOnUse" x="0" y="0" width="25" height="24">
<path d="M24.5 0H0.5V24H24.5V0Z" fill="white"/>
</mask>
<g mask="url(#mask0_156_2478)">
<path d="M9.17188 14.3298C9.17188 15.6198 10.1619 16.6598 11.3919 16.6598H13.9019C14.9719 16.6598 15.8419 15.7498 15.8419 14.6298C15.8419 13.4098 15.3119 12.9798 14.5219 12.6998L10.4919 11.2998C9.70187 11.0198 9.17188 10.5898 9.17188 9.36984C9.17188 8.24984 10.0419 7.33984 11.1119 7.33984H13.6219C14.8519 7.33984 15.8419 8.37984 15.8419 9.66984" stroke="white" stroke-width="1.5" stroke-linecap="round" stroke-linejoin="round"/>
<path d="M12.5 6V18" stroke="white" stroke-width="1.5" stroke-linecap="round" stroke-linejoin="round"/>
<path d="M15.5 22H9.5C4.5 22 2.5 20 2.5 15V9C2.5 4 4.5 2 9.5 2H15.5C20.5 2 22.5 4 22.5 9V15C22.5 20 20.5 22 15.5 22Z" stroke="white" stroke-width="1.5" stroke-linecap="round" stroke-linejoin="round"/>
</g>
</g>
<defs>
<clipPath id="clip0_156_2478">
<rect width="24" height="24" fill="white" transform="translate(0.5)"/>
</clipPath>
</defs>
</svg>
